<svg version="1.1" xmlns="http://www.w3.org/2000/svg" viewBox="0 0 344.296875 205.71484375" width="344.296875" height="205.71484375">
  <!-- svg-source:excalidraw -->
  
  <defs>
    <style class="style-fonts">
      @font-face {
        font-family: "Virgil";
        src: url("https://excalidraw.com/Virgil.woff2");
      }
      @font-face {
        font-family: "Cascadia";
        src: url("https://excalidraw.com/Cascadia.woff2");
      }
    </style>
    
  </defs>
  <rect x="0" y="0" width="344.296875" height="205.71484375" fill="#ffffff"/><g transform="translate(12.8046875 11.10546875) rotate(0 1.28515625 91.751953125)" stroke="none"><path fill="#1e1e1e" d="M 1.63,0.15 Q 1.63,0.15 1.18,4.41 0.73,8.68 0.53,15.97 0.33,23.26 -0.16,35.65 -0.66,48.04 -0.48,69.13 -0.29,90.22 0.73,105.56 1.77,120.91 3.19,134.49 4.61,148.08 5.21,156.09 5.82,164.11 6.07,170.00 6.33,175.88 6.50,177.65 6.68,179.42 6.67,179.59 6.65,179.77 6.60,179.94 6.54,180.11 6.45,180.26 6.35,180.41 6.23,180.53 6.10,180.66 5.95,180.75 5.79,180.84 5.62,180.89 5.45,180.94 5.27,180.95 5.09,180.95 4.92,180.92 4.75,180.88 4.58,180.81 4.42,180.73 4.29,180.62 4.15,180.51 4.04,180.37 3.93,180.22 3.86,180.06 3.79,179.90 3.76,179.72 3.73,179.55 3.58,178.31 3.42,177.07 3.00,173.79 2.57,170.51 2.59,170.22 2.61,169.93 2.72,169.66 2.83,169.39 3.03,169.17 3.22,168.95 3.47,168.80 3.72,168.66 4.01,168.60 4.29,168.54 4.58,168.57 4.87,168.61 5.13,168.74 5.39,168.86 5.60,169.06 5.81,169.27 5.95,169.53 6.08,169.78 6.12,170.07 6.17,170.36 6.11,170.65 6.06,170.93 5.92,171.19 5.78,171.45 5.57,171.64 5.36,171.84 5.09,171.96 4.83,172.08 4.54,172.11 4.25,172.13 3.96,172.07 3.68,172.00 3.43,171.85 3.18,171.70 3.00,171.47 2.81,171.25 2.71,170.97 2.60,170.70 2.59,170.41 2.58,170.12 2.66,169.84 2.74,169.56 2.91,169.32 3.07,169.08 3.31,168.91 3.54,168.74 3.82,168.65 4.10,168.56 4.39,168.56 4.68,168.57 4.95,168.66 5.23,168.76 5.46,168.94 5.69,169.12 5.85,169.36 6.01,169.60 6.08,169.88 6.16,170.17 6.16,170.17 6.16,170.17 6.37,173.49 6.58,176.82 6.63,178.12 6.68,179.42 6.67,179.59 6.65,179.77 6.60,179.94 6.54,180.11 6.45,180.26 6.35,180.41 6.23,180.53 6.10,180.66 5.95,180.75 5.79,180.84 5.62,180.89 5.45,180.94 5.27,180.95 5.09,180.95 4.92,180.92 4.75,180.88 4.58,180.81 4.42,180.73 4.29,180.62 4.15,180.51 4.04,180.37 3.93,180.22 3.86,180.06 3.79,179.90 3.76,179.72 3.73,179.55 3.69,177.77 3.65,176.00 3.39,170.16 3.13,164.32 2.52,156.34 1.90,148.36 0.46,134.73 -0.97,121.10 -2.04,105.67 -3.10,90.25 -3.32,69.09 -3.53,47.93 -3.08,35.56 -2.63,23.19 -2.49,15.79 -2.34,8.39 -1.99,4.11 -1.63,-0.15 -1.58,-0.34 -1.54,-0.54 -1.46,-0.71 -1.37,-0.89 -1.24,-1.04 -1.11,-1.19 -0.95,-1.31 -0.79,-1.43 -0.61,-1.50 -0.43,-1.58 -0.23,-1.60 -0.04,-1.63 0.15,-1.61 0.34,-1.60 0.53,-1.53 0.72,-1.47 0.88,-1.36 1.05,-1.25 1.18,-1.11 1.32,-0.96 1.41,-0.79 1.51,-0.62 1.56,-0.43 1.62,-0.24 1.62,-0.04 1.63,0.15 1.63,0.15 L 1.63,0.15 Z"/></g><g transform="translate(16.84375 126.6640625) rotate(0 84.353515625 -16.259765625)" stroke="none"><path fill="#1e1e1e" d="M -1.49,-0.58 Q -1.49,-0.58 -0.90,-2.16 -0.31,-3.75 2.94,-5.65 6.19,-7.55 16.99,-9.89 27.79,-12.24 45.81,-15.06 63.83,-17.89 83.75,-20.40 103.67,-22.92 119.64,-24.78 135.61,-26.64 145.10,-27.43 154.59,-28.21 158.55,-28.54 162.51,-28.87 162.67,-28.87 162.84,-28.86 162.99,-28.82 163.15,-28.77 163.29,-28.69 163.43,-28.61 163.55,-28.49 163.67,-28.38 163.76,-28.24 163.85,-28.10 163.90,-27.95 163.95,-27.79 163.97,-27.63 163.98,-27.47 163.95,-27.31 163.93,-27.14 163.86,-26.99 163.80,-26.84 163.70,-26.71 163.61,-26.58 163.48,-26.48 163.35,-26.37 163.20,-26.30 163.06,-26.23 162.90,-26.20 162.74,-26.16 159.09,-28.21 155.45,-30.25 155.26,-30.43 155.07,-30.61 154.94,-30.84 154.81,-31.07 154.76,-31.32 154.72,-31.58 154.75,-31.84 154.79,-32.10 154.91,-32.34 155.03,-32.57 155.22,-32.76 155.40,-32.94 155.64,-33.05 155.88,-33.17 156.14,-33.20 156.40,-33.24 156.66,-33.18 156.91,-33.13 157.14,-33.00 157.37,-32.87 157.54,-32.67 157.72,-32.47 157.82,-32.23 157.92,-31.99 157.94,-31.73 157.96,-31.47 157.89,-31.21 157.83,-30.96 157.68,-30.74 157.54,-30.52 157.33,-30.35 157.13,-30.19 156.88,-30.10 156.63,-30.01 156.37,-30.01 156.11,-30.00 155.86,-30.08 155.61,-30.16 155.39,-30.32 155.18,-30.47 155.03,-30.69 154.88,-30.90 154.80,-31.16 154.73,-31.41 154.74,-31.67 154.75,-31.93 154.84,-32.18 154.93,-32.42 155.10,-32.63 155.27,-32.83 155.49,-32.97 155.71,-33.11 155.97,-33.17 156.22,-33.23 156.49,-33.21 156.75,-33.18 156.99,-33.08 157.23,-32.97 157.23,-32.97 157.23,-32.97 159.87,-30.92 162.51,-28.87 162.67,-28.87 162.83,-28.86 162.99,-28.82 163.15,-28.77 163.29,-28.69 163.43,-28.61 163.55,-28.49 163.67,-28.38 163.76,-28.24 163.85,-28.10 163.90,-27.95 163.95,-27.79 163.97,-27.63 163.98,-27.47 163.95,-27.31 163.93,-27.14 163.86,-26.99 163.80,-26.84 163.70,-26.71 163.61,-26.58 163.48,-26.48 163.35,-26.37 163.20,-26.30 163.06,-26.23 162.90,-26.20 162.74,-26.16 158.78,-25.82 154.82,-25.47 145.38,-24.66 135.94,-23.86 119.98,-21.97 104.03,-20.08 84.16,-17.52 64.29,-14.96 46.37,-12.10 28.45,-9.23 18.09,-6.95 7.73,-4.68 5.15,-3.37 2.57,-2.07 2.03,-0.74 1.49,0.58 1.40,0.75 1.31,0.92 1.18,1.06 1.05,1.20 0.89,1.31 0.73,1.42 0.55,1.49 0.37,1.55 0.17,1.58 -0.01,1.60 -0.20,1.57 -0.39,1.55 -0.57,1.48 -0.75,1.41 -0.91,1.30 -1.07,1.19 -1.19,1.04 -1.32,0.90 -1.41,0.72 -1.50,0.55 -1.54,0.36 -1.59,0.18 -1.59,-0.01 -1.58,-0.20 -1.54,-0.39 -1.49,-0.58 -1.49,-0.58 L -1.49,-0.58 Z"/></g><g transform="translate(87.1875 31.4375) rotate(0 11.4296875 76.375)" stroke="none"><path fill="#1e1e1e" d="M 1.70,-0.07 Q 1.70,-0.07 1.90,5.38 2.10,10.85 2.75,20.66 3.41,30.47 5.34,44.45 7.27,58.42 10.07,75.67 12.87,92.91 15.38,105.98 17.90,119.05 19.49,127.73 21.08,136.42 21.97,141.04 22.86,145.65 23.57,146.20 24.29,146.74 24.30,146.92 24.32,147.10 24.29,147.28 24.25,147.46 24.18,147.62 24.11,147.79 24.00,147.94 23.89,148.08 23.75,148.19 23.60,148.31 23.44,148.38 23.27,148.46 23.10,148.49 22.92,148.53 22.74,148.52 22.56,148.51 22.38,148.46 22.21,148.41 22.05,148.31 21.89,148.22 21.76,148.09 21.63,147.97 21.54,147.81 21.44,147.66 21.39,147.49 21.33,147.31 21.38,146.88 21.42,146.44 21.55,146.23 21.68,146.02 21.87,145.87 22.06,145.72 22.29,145.63 22.52,145.55 22.76,145.54 23.01,145.53 23.24,145.60 23.47,145.67 23.67,145.81 23.87,145.95 24.01,146.15 24.16,146.35 24.23,146.58 24.30,146.81 24.30,147.06 24.29,147.30 24.21,147.53 24.13,147.76 23.98,147.95 23.82,148.14 23.62,148.27 23.41,148.41 23.18,148.47 22.94,148.53 22.70,148.51 22.45,148.49 22.23,148.40 22.01,148.30 21.82,148.14 21.64,147.98 21.52,147.76 21.40,147.55 21.35,147.31 21.30,147.07 21.34,146.83 21.37,146.59 21.47,146.37 21.58,146.15 21.75,145.98 21.93,145.81 22.14,145.70 22.36,145.59 22.60,145.55 22.84,145.52 23.08,145.56 23.32,145.61 23.54,145.73 23.75,145.85 23.91,146.03 24.08,146.21 24.17,146.43 24.27,146.65 24.29,146.90 24.31,147.14 24.30,146.94 24.29,146.74 24.30,146.92 24.32,147.10 24.29,147.28 24.26,147.46 24.18,147.62 24.11,147.79 24.00,147.94 23.89,148.08 23.75,148.19 23.60,148.31 23.44,148.38 23.28,148.46 23.10,148.49 22.92,148.53 22.74,148.52 22.56,148.51 22.38,148.46 22.21,148.41 22.05,148.31 21.89,148.22 21.76,148.10 21.63,147.97 21.54,147.81 21.44,147.66 21.39,147.49 21.33,147.31 20.76,146.74 20.20,146.17 19.29,141.54 18.38,136.92 16.77,128.25 15.16,119.58 12.61,106.47 10.06,93.37 7.21,76.10 4.37,58.83 2.37,44.76 0.38,30.69 -0.35,20.84 -1.09,11.00 -1.39,5.53 -1.70,0.07 -1.68,-0.12 -1.67,-0.33 -1.60,-0.52 -1.54,-0.72 -1.43,-0.89 -1.32,-1.07 -1.17,-1.21 -1.03,-1.35 -0.85,-1.46 -0.67,-1.56 -0.48,-1.62 -0.28,-1.68 -0.07,-1.69 0.12,-1.70 0.32,-1.66 0.53,-1.62 0.71,-1.53 0.90,-1.44 1.06,-1.31 1.22,-1.18 1.34,-1.02 1.47,-0.86 1.55,-0.67 1.63,-0.48 1.66,-0.28 1.70,-0.07 1.70,-0.07 L 1.70,-0.07 Z"/></g><g transform="translate(126.5625 147.64453125) rotate(0 42.990234375 -22.21875)" stroke="none"><path fill="#1e1e1e" d="M 1.58,-0.33 Q 1.58,-0.33 1.51,0.19 1.43,0.72 3.20,1.02 4.96,1.32 13.06,-0.13 21.17,-1.59 30.24,-4.48 39.31,-7.37 45.62,-10.48 51.94,-13.60 57.47,-18.35 63.00,-23.09 66.29,-29.40 69.58,-35.71 69.94,-39.22 70.29,-42.74 68.65,-44.74 67.01,-46.75 62.57,-47.41 58.13,-48.07 53.42,-46.53 48.71,-44.99 44.65,-41.22 40.59,-37.45 37.23,-31.90 33.87,-26.36 31.89,-20.74 29.92,-15.11 29.80,-11.42 29.68,-7.73 30.46,-5.57 31.24,-3.40 32.81,-1.93 34.37,-0.46 38.26,1.06 42.15,2.59 45.15,3.44 48.15,4.29 52.65,4.34 57.15,4.38 61.22,3.47 65.30,2.57 68.82,1.29 72.33,0.02 75.69,-1.43 79.06,-2.89 82.16,-4.20 85.26,-5.52 85.49,-5.57 85.73,-5.63 85.96,-5.60 86.20,-5.58 86.42,-5.48 86.64,-5.38 86.81,-5.22 86.99,-5.05 87.10,-4.84 87.21,-4.63 87.25,-4.40 87.29,-4.16 87.26,-3.92 87.22,-3.69 87.11,-3.48 87.00,-3.26 86.83,-3.10 86.65,-2.93 86.44,-2.83 86.22,-2.73 85.98,-2.70 85.75,-2.67 85.51,-2.72 85.28,-2.77 85.07,-2.90 84.87,-3.02 84.71,-3.20 84.55,-3.38 84.46,-3.60 84.38,-3.82 84.36,-4.06 84.35,-4.30 84.41,-4.53 84.47,-4.76 84.60,-4.96 84.74,-5.16 84.93,-5.31 85.12,-5.45 85.34,-5.53 85.57,-5.61 85.81,-5.61 86.05,-5.61 86.27,-5.54 86.50,-5.46 86.69,-5.32 86.88,-5.17 87.02,-4.98 87.15,-4.78 87.22,-4.55 87.28,-4.32 87.27,-4.08 87.26,-3.84 87.17,-3.62 87.09,-3.40 86.93,-3.21 86.78,-3.03 86.58,-2.91 86.37,-2.78 86.37,-2.78 86.37,-2.78 83.24,-1.63 80.10,-0.48 76.66,1.00 73.22,2.49 69.54,3.81 65.86,5.13 61.49,6.07 57.13,7.01 52.29,6.92 47.46,6.82 44.31,5.92 41.16,5.03 36.87,3.23 32.58,1.44 30.70,-0.50 28.82,-2.44 27.94,-5.11 27.05,-7.77 27.24,-11.86 27.42,-15.96 29.51,-21.84 31.60,-27.73 35.19,-33.56 38.78,-39.39 43.30,-43.43 47.81,-47.48 53.13,-49.09 58.45,-50.71 63.59,-49.69 68.72,-48.66 70.79,-45.83 72.87,-42.99 72.46,-38.74 72.06,-34.49 68.48,-27.74 64.89,-20.99 59.07,-16.00 53.25,-11.00 46.75,-7.74 40.24,-4.48 30.99,-1.47 21.73,1.53 12.99,3.07 4.25,4.60 1.80,3.82 -0.64,3.04 -1.11,1.69 -1.58,0.33 -1.60,0.13 -1.62,-0.05 -1.59,-0.25 -1.56,-0.44 -1.48,-0.62 -1.40,-0.80 -1.29,-0.96 -1.17,-1.11 -1.02,-1.24 -0.87,-1.36 -0.69,-1.45 -0.52,-1.53 -0.32,-1.57 -0.13,-1.61 0.05,-1.60 0.25,-1.60 0.44,-1.54 0.62,-1.49 0.79,-1.39 0.96,-1.30 1.10,-1.16 1.25,-1.03 1.35,-0.86 1.46,-0.70 1.52,-0.51 1.58,-0.33 1.58,-0.33 L 1.58,-0.33 Z"/></g><g transform="translate(225.12890625 51.4921875) rotate(0 7.392578125 48.14453125)" stroke="none"><path fill="#1e1e1e" d="M 1.66,0 Q 1.66,0 1.61,2.80 1.56,5.61 1.53,11.02 1.49,16.43 1.65,23.80 1.81,31.17 2.96,38.43 4.10,45.69 5.86,52.98 7.62,60.27 9.40,66.48 11.17,72.69 12.59,79.41 14.01,86.14 14.61,88.72 15.20,91.31 15.22,91.47 15.23,91.63 15.21,91.79 15.18,91.95 15.12,92.10 15.06,92.25 14.96,92.38 14.87,92.51 14.74,92.61 14.62,92.71 14.47,92.78 14.33,92.86 14.17,92.89 14.01,92.92 13.85,92.92 13.69,92.91 13.53,92.87 13.38,92.82 13.23,92.74 13.09,92.66 12.98,92.55 12.86,92.44 12.77,92.31 12.68,92.17 12.63,92.02 12.58,91.86 12.74,90.00 12.89,88.14 12.54,85.08 12.18,82.03 12.21,81.74 12.23,81.46 12.35,81.20 12.46,80.94 12.65,80.73 12.84,80.52 13.09,80.38 13.34,80.25 13.62,80.20 13.90,80.14 14.18,80.19 14.46,80.23 14.71,80.35 14.97,80.48 15.17,80.68 15.36,80.89 15.49,81.14 15.61,81.40 15.65,81.68 15.68,81.96 15.63,82.24 15.57,82.52 15.43,82.76 15.29,83.01 15.08,83.20 14.86,83.38 14.60,83.49 14.34,83.60 14.06,83.62 13.77,83.64 13.50,83.57 13.22,83.50 12.99,83.35 12.75,83.19 12.57,82.97 12.40,82.75 12.30,82.48 12.21,82.21 12.20,81.93 12.20,81.65 12.28,81.38 12.37,81.10 12.53,80.88 12.70,80.65 12.93,80.48 13.17,80.32 13.44,80.24 13.71,80.16 13.99,80.17 14.28,80.18 14.54,80.28 14.81,80.38 15.03,80.56 15.25,80.74 15.40,80.98 15.55,81.22 15.61,81.49 15.68,81.77 15.68,81.77 15.68,81.77 15.80,85.18 15.91,88.60 15.56,89.95 15.20,91.31 15.22,91.47 15.23,91.63 15.21,91.79 15.18,91.95 15.12,92.10 15.06,92.25 14.96,92.38 14.87,92.51 14.74,92.61 14.62,92.71 14.47,92.78 14.33,92.85 14.17,92.89 14.01,92.92 13.85,92.92 13.69,92.91 13.53,92.87 13.38,92.82 13.23,92.74 13.09,92.66 12.98,92.55 12.86,92.44 12.77,92.31 12.69,92.17 12.63,92.02 12.58,91.86 11.97,89.28 11.37,86.70 9.96,80.07 8.55,73.44 6.74,67.18 4.93,60.92 3.12,53.53 1.32,46.14 0.12,38.69 -1.07,31.25 -1.28,23.84 -1.49,16.43 -1.53,11.02 -1.56,5.61 -1.61,2.80 -1.66,0 -1.63,-0.19 -1.61,-0.39 -1.54,-0.58 -1.47,-0.77 -1.35,-0.93 -1.24,-1.10 -1.09,-1.23 -0.94,-1.36 -0.76,-1.46 -0.58,-1.55 -0.39,-1.60 -0.20,-1.65 0.00,-1.65 0.20,-1.65 0.39,-1.60 0.58,-1.55 0.76,-1.46 0.94,-1.36 1.09,-1.23 1.24,-1.10 1.35,-0.93 1.47,-0.77 1.54,-0.58 1.61,-0.39 1.63,-0.19 1.66,0.00 1.66,0.00 L 1.66,0 Z"/></g><g transform="translate(236.5078125 41.67578125) rotate(0 8.724609375 34.462890625)" stroke="none"><path fill="#1e1e1e" d="M 1.65,-0.52 Q 1.65,-0.52 2.40,2.05 3.15,4.62 3.99,8.91 4.83,13.20 5.88,18.77 6.94,24.35 8.26,30.25 9.58,36.15 11.01,41.99 12.44,47.83 13.71,51.64 14.98,55.44 15.81,57.65 16.65,59.87 17.29,61.68 17.94,63.50 18.43,65.88 18.92,68.26 18.92,68.51 18.92,68.76 18.84,69.00 18.76,69.24 18.60,69.44 18.45,69.65 18.24,69.79 18.04,69.93 17.79,70.00 17.55,70.07 17.30,70.05 17.05,70.04 16.81,69.95 16.58,69.85 16.38,69.69 16.19,69.53 16.06,69.31 15.93,69.10 15.87,68.85 15.82,68.60 15.85,68.35 15.87,68.10 15.98,67.87 16.08,67.64 16.26,67.46 16.43,67.28 16.65,67.16 16.87,67.04 17.12,67.00 17.37,66.96 17.62,67.00 17.87,67.04 18.09,67.15 18.32,67.27 18.49,67.45 18.67,67.64 18.77,67.87 18.88,68.09 18.91,68.35 18.93,68.60 18.88,68.84 18.83,69.09 18.70,69.31 18.57,69.52 18.38,69.69 18.18,69.85 17.95,69.94 17.72,70.04 17.46,70.05 17.21,70.07 16.97,70.00 16.72,69.93 16.52,69.79 16.31,69.65 16.15,69.45 16.00,69.25 15.92,69.01 15.84,68.77 15.84,68.77 15.84,68.77 15.51,66.59 15.19,64.40 14.65,62.62 14.10,60.84 13.24,58.58 12.37,56.32 11.04,52.41 9.72,48.51 8.25,42.65 6.79,36.79 5.41,30.85 4.04,24.91 2.92,19.37 1.81,13.82 0.93,9.70 0.05,5.59 -0.80,3.05 -1.65,0.52 -1.69,0.31 -1.73,0.10 -1.72,-0.10 -1.71,-0.30 -1.65,-0.50 -1.58,-0.71 -1.48,-0.88 -1.37,-1.06 -1.22,-1.21 -1.07,-1.36 -0.89,-1.47 -0.71,-1.58 -0.51,-1.64 -0.31,-1.71 -0.10,-1.72 0.10,-1.73 0.30,-1.69 0.51,-1.66 0.70,-1.57 0.89,-1.49 1.06,-1.36 1.22,-1.23 1.35,-1.06 1.48,-0.90 1.57,-0.71 1.65,-0.52 1.65,-0.52 L 1.65,-0.52 Z"/></g><g transform="translate(276.75 98.12109375) rotate(0 28.7734375 7.833984375)" stroke="none"><path fill="#1e1e1e" d="M 1.75,0 Q 1.75,0 1.70,2.08 1.65,4.16 1.60,7.95 1.56,11.73 1.52,17.77 1.49,23.81 1.78,28.57 2.07,33.32 2.74,35.91 3.40,38.49 3.87,39.44 4.35,40.39 10.76,37.21 17.18,34.02 23.23,29.11 29.28,24.20 35.02,17.83 40.77,11.46 44.85,4.16 48.93,-3.13 51.02,-8.34 53.10,-13.56 52.22,-16.46 51.34,-19.36 47.62,-21.22 43.90,-23.08 39.96,-23.77 36.02,-24.45 32.41,-23.81 28.81,-23.17 25.38,-21.14 21.96,-19.11 19.36,-16.02 16.76,-12.94 15.36,-11.09 13.96,-9.25 13.51,-8.45 13.06,-7.64 12.94,-7.52 12.82,-7.40 12.68,-7.32 12.54,-7.23 12.38,-7.18 12.22,-7.12 12.06,-7.11 11.89,-7.10 11.73,-7.13 11.56,-7.15 11.41,-7.22 11.26,-7.29 11.13,-7.39 10.99,-7.49 10.89,-7.62 10.79,-7.75 10.71,-7.90 10.64,-8.05 10.61,-8.21 10.58,-8.38 10.59,-8.54 10.60,-8.71 10.64,-8.87 10.69,-9.03 10.77,-9.17 10.86,-9.32 11.01,-9.46 11.16,-9.60 11.36,-9.70 11.56,-9.80 11.78,-9.83 12.00,-9.86 12.22,-9.82 12.44,-9.77 12.63,-9.66 12.83,-9.55 12.98,-9.38 13.12,-9.22 13.21,-9.01 13.30,-8.81 13.32,-8.58 13.33,-8.36 13.28,-8.14 13.22,-7.93 13.10,-7.74 12.98,-7.55 12.81,-7.41 12.63,-7.27 12.42,-7.20 12.21,-7.12 11.99,-7.12 11.76,-7.11 11.55,-7.18 11.34,-7.24 11.16,-7.38 10.98,-7.51 10.85,-7.69 10.72,-7.87 10.65,-8.08 10.59,-8.30 10.59,-8.52 10.60,-8.75 10.68,-8.95 10.76,-9.16 10.90,-9.34 11.04,-9.51 11.23,-9.63 11.42,-9.75 11.63,-9.80 11.85,-9.86 12.07,-9.84 12.30,-9.82 12.50,-9.73 12.71,-9.64 12.87,-9.49 13.04,-9.34 13.15,-9.14 13.26,-8.95 13.30,-8.73 13.34,-8.51 13.31,-8.29 13.28,-8.07 13.18,-7.87 13.07,-7.67 13.07,-7.65 13.06,-7.64 12.94,-7.52 12.82,-7.40 12.68,-7.32 12.54,-7.23 12.38,-7.18 12.23,-7.12 12.06,-7.11 11.89,-7.10 11.73,-7.13 11.56,-7.15 11.41,-7.22 11.26,-7.29 11.13,-7.39 10.99,-7.49 10.89,-7.62 10.79,-7.75 10.71,-7.90 10.64,-8.05 10.61,-8.21 10.58,-8.38 10.59,-8.54 10.60,-8.71 10.64,-8.87 10.69,-9.03 10.77,-9.17 10.86,-9.31 11.36,-10.09 11.85,-10.86 13.30,-12.76 14.75,-14.66 17.66,-18.02 20.58,-21.38 24.44,-23.59 28.30,-25.79 32.37,-26.45 36.44,-27.11 40.80,-26.30 45.16,-25.50 49.38,-23.06 53.60,-20.62 54.67,-16.77 55.74,-12.91 53.60,-7.31 51.46,-1.72 47.23,5.85 43.01,13.44 37.13,20.03 31.26,26.61 25.04,31.76 18.83,36.90 12.32,40.44 5.81,43.99 3.86,43.11 1.91,42.23 1.29,40.71 0.67,39.20 -0.06,36.36 -0.80,33.52 -1.14,28.67 -1.49,23.81 -1.52,17.77 -1.56,11.73 -1.60,7.95 -1.65,4.16 -1.70,2.08 -1.75,0 -1.72,-0.20 -1.70,-0.41 -1.62,-0.61 -1.55,-0.81 -1.43,-0.98 -1.31,-1.16 -1.15,-1.30 -0.99,-1.44 -0.80,-1.53 -0.62,-1.63 -0.41,-1.68 -0.21,-1.73 0.00,-1.73 0.21,-1.73 0.41,-1.68 0.62,-1.63 0.80,-1.53 0.99,-1.44 1.15,-1.30 1.31,-1.16 1.43,-0.98 1.55,-0.81 1.62,-0.61 1.70,-0.41 1.72,-0.20 1.75,0.00 1.75,0.00 L 1.75,0 Z"/></g></svg>